<svg xmlns="http://www.w3.org/2000/svg" width="22.414" height="16.048" viewBox="0 0 22.414 16.048">
  <g id="Grupo_66619" data-name="Grupo 66619" transform="translate(-417.698 -16175.043)">
    <g id="Icon_feather-youtube" data-name="Icon feather-youtube" transform="translate(418.198 16175.543)">
      <path id="Trazado_138023" data-name="Trazado 138023" d="M22.465,8.355a2.706,2.706,0,0,0-1.888-1.947C18.9,6,12.206,6,12.206,6s-6.7,0-8.371.448A2.706,2.706,0,0,0,1.947,8.394,28.226,28.226,0,0,0,1.5,13.543a28.226,28.226,0,0,0,.448,5.188A2.706,2.706,0,0,0,3.836,20.6c1.674.448,8.37.448,8.37.448s6.7,0,8.37-.448a2.706,2.706,0,0,0,1.888-1.947,28.226,28.226,0,0,0,.448-5.11,28.226,28.226,0,0,0-.448-5.188Z" transform="translate(-1.499 -6)" fill="none" stroke="#435265" stroke-linecap="round" stroke-linejoin="round" stroke-width="1"/>
      <path id="Trazado_138024" data-name="Trazado 138024" d="M14.625,19.085l5.6-3.183-5.6-3.183Z" transform="translate(-6.108 -8.36)" fill="#435265" stroke="#435265" stroke-linecap="round" stroke-linejoin="round" stroke-width="1"/>
    </g>
  </g>
</svg>
